<svg width="52" height="48" viewBox="0 0 52 48" fill="white" xmlns="http://www.w3.org/2000/svg">
<path fill-rule="evenodd" clip-rule="evenodd" d="M26.1958 0.0161438C36.7031 0.117764 46.1813 5.81776 49.8746 14.3339C54.2125 24.3379 49.869 35.5855 39.4973 41.2105L39.4651 41.2281C39.1062 41.4239 38.8104 41.5853 38.5041 41.0919C38.2275 40.6468 38.2302 40.4097 38.7587 40.1218C43.7854 37.3782 47.191 33.5121 49.0114 28.5936C50.3255 25.0444 50.6022 21.3694 49.5952 17.7863C47.6697 10.9347 43.0246 5.89276 35.5439 3.03308C30.7938 1.21614 25.8196 0.778244 20.8011 1.87421C12.1861 3.75163 6.2713 8.3847 3.3941 15.7613C-0.147065 24.8339 4.0442 34.9081 13.3315 40.0371C13.3907 40.0695 13.4568 40.0988 13.5237 40.1285C13.8167 40.2582 14.1244 40.3945 13.9263 40.8258C13.622 41.4911 13.4172 41.5686 12.7173 41.1766C7.2396 38.1089 3.455 33.8944 1.7369 28.3903C-0.728035 20.4936 1.2085 13.4073 7.4222 7.3178C10.7531 4.05405 14.9167 1.81614 19.8466 0.785504C20.015 0.750262 20.1832 0.713274 20.3515 0.67628L20.3516 0.676268L20.3516 0.676255L20.3517 0.676242L20.3517 0.676229L20.3518 0.676216L20.3518 0.676203L20.3519 0.67619L20.352 0.676178L20.352 0.676165L20.3521 0.676152L20.3521 0.676139L20.3522 0.676126L20.3522 0.676113L20.3523 0.6761L20.3524 0.676087L20.3524 0.676075L20.3525 0.676062L20.3525 0.676049L20.3526 0.676036L20.3526 0.676023L20.3527 0.67601L20.3528 0.675997L20.3528 0.675984L20.3529 0.675972L20.3529 0.675959C20.9002 0.555626 21.4477 0.435239 22.0018 0.374214C22.9427 0.272994 23.8873 0.199314 24.8315 0.12567C25.2865 0.0901794 25.7415 0.0546966 26.1958 0.0161438ZM12.6454 27.9404C13.3287 28.7121 13.3204 28.8621 12.6067 29.45C11.1017 30.6887 11.37 32.7549 13.1295 33.6186C13.4449 33.7734 13.6275 33.7613 13.7741 33.4613C14.8476 31.2766 16.9169 29.9218 19.0969 28.6928C22.6215 26.7089 26.4698 25.3202 30.4204 24.1395C30.7994 24.0258 31.0013 24.1033 31.1286 24.471C31.6459 25.9565 31.5961 27.4444 30.9543 28.8597C30.2405 30.4347 30.1354 32.0436 30.3484 33.6742C30.4859 34.7205 30.687 35.7613 30.8881 36.8017L30.8881 36.8018L30.8881 36.8018L30.8881 36.8019L30.8881 36.8019L30.8881 36.802L30.8881 36.802L30.8881 36.8021L30.8881 36.8021L30.8882 36.8021L30.8882 36.8022L30.8882 36.8022L30.8882 36.8023L30.8882 36.8023L30.8882 36.8024L30.8882 36.8024L30.8882 36.8025L30.8882 36.8025L30.8883 36.8026L30.8883 36.8026L30.8883 36.8026L30.8883 36.8027L30.8883 36.8027L30.8883 36.8028L30.8883 36.8028L30.8883 36.8029C30.9866 37.3115 31.0848 37.82 31.1756 38.3291C31.3556 39.348 31.5307 40.368 31.7058 41.3876L31.7059 41.388C31.7973 41.9201 31.8887 42.4522 31.9807 42.9839C31.9992 43.0881 32.013 43.1923 32.0269 43.2965L32.0269 43.2966L32.0269 43.2968L32.027 43.2969L32.027 43.297L32.027 43.2972L32.027 43.2973L32.0271 43.2974L32.0271 43.2976L32.0271 43.2977L32.0271 43.2979L32.0271 43.298L32.0272 43.2981L32.0272 43.2983L32.0272 43.2984L32.0272 43.2985L32.0273 43.2987L32.0273 43.2988L32.0273 43.299L32.0273 43.2991C32.032 43.3344 32.0367 43.3696 32.0416 43.4049C32.0997 43.8428 32.4538 43.8694 32.8522 43.8694C33.328 43.8694 33.3474 43.6008 33.3474 43.2984C33.3474 42.7648 33.3488 42.231 33.3501 41.6971V41.6968V41.6966V41.6963V41.6961V41.6958V41.6956V41.6953V41.6951V41.6948V41.6946V41.6943V41.6941V41.6938V41.6936V41.6933V41.6931V41.6928V41.6926V41.6923V41.692V41.6918V41.6915V41.6913V41.691V41.6906C33.3535 40.3507 33.3569 39.0102 33.3391 37.671C33.3335 37.2041 33.4968 36.9113 33.9366 36.6186C38.186 33.7976 39.6744 30.0912 38.5291 25.746C37.8596 23.2154 36.2467 21.0113 34.3654 18.996C34.2382 18.8605 33.8592 18.8412 33.6129 18.8726C33.272 18.915 32.934 18.9755 32.5962 19.036L32.5962 19.036L32.5961 19.036L32.5961 19.036L32.596 19.036L32.596 19.036L32.5959 19.036L32.5959 19.036L32.5959 19.036L32.5958 19.036L32.5958 19.036L32.5957 19.036L32.5957 19.036L32.5956 19.036L32.5956 19.036L32.5955 19.0361L32.5955 19.0361L32.5954 19.0361L32.5954 19.0361L32.5953 19.0361L32.5953 19.0361L32.5953 19.0361L32.5952 19.0361L32.5952 19.0361L32.5951 19.0361L32.5951 19.0361L32.595 19.0361C32.2014 19.1066 31.8081 19.177 31.4108 19.2186C31.0733 19.2549 30.5504 19.2186 30.6389 18.7662C30.6432 18.7443 30.6474 18.7219 30.6516 18.6991L30.6517 18.6987L30.6517 18.6986C30.7158 18.3546 30.7943 17.9326 31.5076 17.9847C32.8577 18.0815 34.2327 17.1887 34.6725 16.0492C34.6792 16.0318 34.6678 16.01 34.6403 15.9569C34.622 15.9217 34.5966 15.8728 34.5646 15.8024L34.4764 15.8324C32.7574 16.4176 31.0354 17.0038 29.1478 17.6484C29.9639 15.8654 30.8602 14.3218 32.2186 13.0129C33.5908 11.6895 35.2618 10.8379 37.3478 10.6589L37.3472 10.6524C37.3418 10.5894 37.3366 10.5285 37.3339 10.4654C37.2095 10.4491 37.085 10.4267 36.9608 10.4044C36.6983 10.3573 36.4366 10.3104 36.1775 10.3202C34.5204 10.3855 33.0458 10.9347 31.6764 11.7162C29.0288 13.2258 26.965 15.2581 25.1086 17.4549C24.438 18.2472 23.818 19.0717 23.1982 19.896L23.1981 19.8961L23.198 19.8962L23.1979 19.8963L23.1979 19.8964L23.1978 19.8965L23.1977 19.8966L23.1977 19.8967L23.1976 19.8967L23.1975 19.8968L23.1974 19.8969L23.1974 19.897L23.1973 19.8971L23.1972 19.8972L23.1972 19.8973L23.1971 19.8973L23.197 19.8974L23.197 19.8975L23.1969 19.8976L23.1968 19.8977L23.1968 19.8978L23.1967 19.8979L23.1966 19.8979L23.1964 19.8982C22.8554 20.3518 22.5144 20.8053 22.165 21.2533C21.7694 21.7613 21.8441 22.2379 22.2314 22.7049C22.6436 23.2033 23.2025 23.1331 23.7945 23.017C24.4142 22.8936 25.0422 22.7895 25.673 22.7194C26.1506 22.6657 26.6302 22.6226 27.1095 22.5796L27.1096 22.5795L27.1097 22.5795L27.1099 22.5795L27.11 22.5795L27.1101 22.5795L27.1102 22.5795L27.1104 22.5795L27.1105 22.5795L27.1106 22.5795L27.1107 22.5794L27.1109 22.5794L27.111 22.5794L27.1111 22.5794L27.1112 22.5794L27.1114 22.5794L27.1115 22.5794L27.1116 22.5794L27.1117 22.5794L27.1119 22.5793L27.112 22.5793L27.1121 22.5793L27.1123 22.5793L27.1124 22.5793L27.1125 22.5793L27.1126 22.5793L27.1127 22.5793L27.1127 22.5793L27.1128 22.5793L27.1129 22.5793L27.1129 22.5792L27.113 22.5792L27.113 22.5792L27.1131 22.5792L27.1131 22.5792L27.1132 22.5792L27.1133 22.5792L27.1133 22.5792L27.1134 22.5792L27.1134 22.5792L27.1135 22.5792L27.1135 22.5792L27.1136 22.5792L27.1137 22.5792L27.1137 22.5792L27.1138 22.5792L27.1138 22.5792L27.1139 22.5791L27.1139 22.5791L27.114 22.5791L27.1141 22.5791C27.7992 22.5176 28.4837 22.4562 29.1616 22.3637C29.7813 22.2791 30.3208 22.0081 30.6223 21.4565C30.8526 21.0352 31.2782 21.1195 31.6583 21.1948C31.7213 21.2072 31.783 21.2195 31.8424 21.2291C31.9226 21.2412 32.0139 21.7274 31.9254 21.9404C31.5131 22.942 30.52 23.375 29.441 23.5637C28.7178 23.6908 27.9797 23.7541 27.241 23.8174L27.2409 23.8174L27.2409 23.8174L27.2408 23.8174L27.2408 23.8174L27.2407 23.8174L27.2407 23.8174L27.2407 23.8174L27.2406 23.8174L27.2406 23.8174L27.2405 23.8174L27.2405 23.8174L27.2404 23.8174L27.2404 23.8174L27.2403 23.8174L27.2403 23.8175L27.2402 23.8175L27.2402 23.8175L27.2402 23.8175L27.2401 23.8175L27.2401 23.8175L27.24 23.8175L27.24 23.8175L27.2399 23.8175L27.2399 23.8175L27.2398 23.8175L27.2398 23.8175L27.2397 23.8175L27.2397 23.8175L27.2396 23.8175L27.2395 23.8175L27.2395 23.8175L27.2394 23.8176L27.2394 23.8176L27.2393 23.8176L27.2393 23.8176L27.2392 23.8176L27.2391 23.8176L27.2391 23.8176L27.239 23.8176L27.239 23.8176L27.2389 23.8176L27.2389 23.8176L27.2388 23.8176L27.2387 23.8176L27.2387 23.8176L27.2386 23.8176L27.2386 23.8176L27.2385 23.8176L27.2385 23.8176L27.2384 23.8177C26.7403 23.8603 26.242 23.9031 25.7477 23.9654C25.2353 24.0303 24.7295 24.1331 24.2239 24.2359C23.9951 24.2824 23.7664 24.3289 23.5372 24.3718C22.0516 24.65 21.0031 24.0839 20.6241 22.7968C20.3862 21.9887 20.4443 21.2726 21.0059 20.5081C23.3491 17.3291 25.8196 14.2541 29.1782 11.8129C30.8768 10.5766 32.7304 9.60161 34.9381 9.19521C38.0809 8.61451 41.5557 10.2307 42.0287 13.3492C42.1615 14.2202 41.9845 15.0428 41.4146 15.7686C41.2845 15.9355 40.8391 16.1339 40.7644 16.0783C40.7043 16.0341 40.6337 15.9918 40.5615 15.9484C40.2578 15.766 39.9249 15.5661 40.2222 15.142C40.6925 14.4766 40.6953 13.775 40.5237 13.042C40.3965 12.4904 40.0534 12.1613 39.4254 12.021C36.7972 11.4307 33.5078 12.8194 32.2712 15.1347C32.783 15.0535 33.2787 14.9249 33.7738 14.7964C34.7985 14.5304 35.8205 14.2652 36.9771 14.4234C36.9298 14.5536 36.8883 14.6816 36.8478 14.8068L36.8478 14.8068C36.7602 15.0772 36.6768 15.3345 36.5482 15.5726C36.2467 16.1363 35.9368 16.7097 35.5274 17.2129C35.1733 17.646 35.2369 17.9315 35.591 18.3234C37.2399 20.1524 38.6397 22.1121 39.4946 24.3331C41.3288 29.092 40.2111 33.5484 35.5772 37.0468C34.9685 37.5065 34.7196 37.9468 34.7445 38.6363C34.7998 40.1266 34.786 41.6218 34.75 43.1121C34.7362 43.7073 34.9962 43.8791 35.6408 43.8694C36.9729 43.8495 38.305 43.854 39.6359 43.8585H39.6365H39.6371C40.0804 43.86 40.5235 43.8615 40.9664 43.8621C41.8959 43.8621 41.8959 43.8645 41.8987 44.646C41.8996 44.9035 41.8952 45.1612 41.8908 45.4189C41.8816 45.9483 41.8725 46.4777 41.9098 47.0049C41.954 47.6121 41.7355 47.796 41.0273 47.7936C36.6349 47.7748 32.2425 47.7765 27.8501 47.7781C26.5932 47.7786 25.3364 47.7791 24.0795 47.7791C23.045 47.7791 22.0106 47.7785 20.9761 47.7779C17.8829 47.7761 14.7897 47.7742 11.6965 47.7887C11.1044 47.7912 10.8665 47.6581 10.8969 47.1113C10.9191 46.7 11.0491 46.5355 11.536 46.5428C12.1331 46.5505 12.7302 46.5482 13.3273 46.5459C14.0443 46.5431 14.7613 46.5404 15.4783 46.5549C16.0067 46.5645 16.2225 46.4339 16.217 45.9452C16.2063 45.0442 16.2066 44.1432 16.207 43.2422C16.2073 42.2876 16.2077 41.3329 16.1949 40.3783C16.1921 40.1218 16.0759 39.8097 15.8905 39.6162C14.6954 38.3823 13.7603 37.0444 13.4394 35.4186C13.4007 35.2226 13.1102 35.0049 12.875 34.9081C9.3173 33.4613 9.6409 29.8323 11.9704 28.3057C12.1089 28.2176 12.2591 28.1407 12.408 28.0645L12.4081 28.0645L12.4081 28.0645L12.4081 28.0645L12.4082 28.0645L12.4083 28.0644C12.4884 28.0234 12.5681 27.9827 12.6454 27.9404ZM29.9335 25.6589C29.8332 25.6792 29.7432 25.6954 29.6607 25.7103L29.6606 25.7103L29.6605 25.7103L29.6605 25.7103L29.6604 25.7103L29.6604 25.7103C29.4971 25.7398 29.3631 25.7639 29.2363 25.8041C26.0216 26.8565 22.8622 28.0153 19.9435 29.617C18.2587 30.5436 16.6458 31.55 15.5641 33.0621C14.9527 33.9137 14.7009 34.8162 15.0108 35.8274C15.3843 37.0565 16.2447 38.0097 17.1327 38.9702C17.4094 39.2702 17.6141 39.7081 17.6252 40.0879C17.6636 41.4415 17.6576 42.7951 17.6515 44.1487C17.6497 44.5491 17.6479 44.9496 17.6473 45.35L17.6473 45.3572C17.646 45.9369 17.6453 46.2367 17.7947 46.3914C17.9548 46.5571 18.287 46.5564 18.975 46.555L19.0472 46.5549C19.6143 46.5524 19.7499 46.3516 19.7416 45.9016C19.7294 45.2815 19.7311 44.6614 19.7328 44.0412C19.7346 43.3912 19.7364 42.7412 19.7222 42.0912C19.7139 41.6484 19.8716 41.3242 20.2478 41.0363C21.3157 40.221 22.1291 39.2412 22.3559 37.9976C22.5662 36.8484 22.7073 35.6871 22.7958 34.5258C22.8345 34.0444 23.0559 33.9694 23.5206 33.9645C23.9937 33.9597 24.287 34.0444 24.2206 34.5283C24.1441 35.0871 24.0708 35.6468 23.9974 36.2067C23.9009 36.9435 23.8043 37.6806 23.7005 38.4162C23.697 38.4411 23.6932 38.466 23.6894 38.4908C23.6475 38.7632 23.6077 39.0224 24.0767 39.0113C25.8335 38.9726 27.5819 38.8686 29.1699 38.1258C29.3802 38.0291 29.5904 37.6903 29.5627 37.4871C29.4931 36.974 29.3942 36.4643 29.2954 35.9548L29.2954 35.9547L29.2954 35.9546C29.1901 35.4118 29.0849 34.8692 29.015 34.3226C28.7604 32.3484 28.7051 30.3887 29.6208 28.492C30.0386 27.6234 30.1658 26.6823 29.9335 25.6589ZM30.0331 39.2726C29.9213 39.2935 29.835 39.3072 29.7656 39.3182C29.6496 39.3366 29.5808 39.3476 29.5185 39.3718C27.9997 39.9694 26.3812 40.2428 24.7462 40.2113C23.4985 40.1871 22.5053 40.3565 21.8773 41.3799C21.8414 41.4392 21.7777 41.4863 21.7141 41.5335C21.6505 41.5807 21.5868 41.6279 21.5509 41.6871C21.5173 41.7438 21.4808 41.8012 21.444 41.8591C21.3049 42.0777 21.1612 42.3034 21.1525 42.5291C21.129 43.1281 21.132 43.7278 21.135 44.3278V44.3278V44.3279V44.3279V44.328V44.328V44.3281V44.3282V44.3282V44.3283V44.3283V44.3284V44.3284V44.3285V44.3286V44.3286V44.3287V44.3287V44.3288V44.3288V44.3289V44.329V44.329V44.3291V44.3291V44.3292C21.1377 44.858 21.1404 45.3871 21.1248 45.9162C21.1082 46.4315 21.3323 46.5621 21.8911 46.5573C23.7748 46.5412 25.6569 46.5436 27.5398 46.5459H27.54H27.5403H27.5405H27.5408H27.5411H27.5413H27.5416H27.5419H27.5421H27.5424H27.5427H27.5429H27.5432H27.5434H27.5437H27.544H27.5442H27.5445H27.5448H27.545H27.5453H27.5456H27.5458H27.5461H27.5463C28.2193 46.5468 28.8923 46.5476 29.5655 46.5476C30.2453 46.5476 30.925 46.5479 31.6046 46.5482H31.6048H31.605H31.6052H31.6054H31.6055H31.6057H31.6059H31.6061H31.6063H31.6065H31.6067H31.6069H31.6071H31.6073H31.6075H31.6077H31.6079H31.6081H31.6083H31.6085H31.6087H31.6089H31.6091H31.6092H31.6094C34.3163 46.5494 37.0221 46.5505 39.7298 46.5331C39.9815 46.5307 40.4076 46.3734 40.4573 46.2137C40.7395 45.3403 40.4961 45.096 39.4725 45.096C38.3829 45.096 37.2934 45.0957 36.204 45.0954H36.2038H36.2035H36.2033H36.203H36.2027H36.2025H36.2022H36.2019H36.2017H36.2014H36.2011H36.2009H36.2006H36.2004H36.2001H36.1998H36.1996H36.1993H36.199H36.1988H36.1985H36.1983H36.198H36.1977H36.1975C32.9328 45.0945 29.6689 45.0936 26.4034 45.1008C25.8916 45.1008 25.5872 45.0403 25.5789 44.4887C25.5706 43.9492 25.839 43.8452 26.3702 43.8524C27.049 43.8634 27.7277 43.8612 28.407 43.8589C28.9265 43.8572 29.4464 43.8555 29.9667 43.8597C30.3816 43.8621 30.6528 43.7702 30.5947 43.3516C30.5235 42.834 30.4519 42.3152 30.3796 41.7911C30.2663 40.9703 30.1512 40.1363 30.0331 39.2726ZM16.6541 6.7153H26.0492C27.1026 6.7153 28.1561 6.71557 29.2096 6.71583H29.2099H29.2102H29.2105H29.2108H29.211H29.2113H29.2116H29.2119H29.2122H29.2125H29.2128H29.213H29.2133H29.2136H29.2139H29.2142H29.2145H29.2148H29.215H29.2153H29.2156H29.2159H29.2162L29.2278 6.71584C31.3472 6.71637 33.4671 6.7169 35.5882 6.7153C35.6263 6.7153 35.6646 6.71564 35.703 6.71597L35.7033 6.71597C35.8965 6.71766 36.0921 6.71936 36.2743 6.679C36.3961 6.6524 36.5897 6.4927 36.5731 6.425C36.5455 6.2992 36.4099 6.1468 36.2743 6.09361C36.1493 6.04563 35.9947 6.04934 35.845 6.05294C35.8059 6.05387 35.7671 6.0548 35.7293 6.0548C29.394 6.0524 23.0614 6.0524 16.7288 6.0524C16.682 6.0524 16.6345 6.0516 16.5869 6.05079C16.4011 6.04765 16.2122 6.04445 16.0427 6.08871C15.9016 6.125 15.7135 6.2798 15.7079 6.3887C15.7024 6.4855 15.8961 6.6427 16.0372 6.6839C16.1817 6.72661 16.3457 6.72224 16.5081 6.71791C16.5571 6.71661 16.606 6.7153 16.6541 6.7153ZM18.5326 10.5186H11.2123C11.1681 10.5186 11.1229 10.52 11.0774 10.5214C10.9351 10.5259 10.7903 10.5305 10.6645 10.4919C10.5456 10.4557 10.3879 10.3057 10.3962 10.2161C10.41 10.0855 10.5234 9.904 10.6507 9.8581C10.7872 9.80583 10.9549 9.81115 11.1184 9.81633C11.167 9.81787 11.2152 9.8194 11.2621 9.8194C14.5008 9.81773 17.7395 9.81828 20.9782 9.81884C22.5975 9.81912 24.2169 9.8194 25.8362 9.8194C25.8815 9.8194 25.9287 9.81651 25.9762 9.81361C26.0968 9.80623 26.2187 9.79878 26.312 9.8387C26.467 9.9065 26.6606 10.0516 26.6717 10.1726C26.68 10.279 26.478 10.4387 26.3286 10.504C26.2363 10.5435 26.1161 10.5355 25.9967 10.5275C25.948 10.5243 25.8993 10.521 25.8528 10.521C23.4165 10.5186 20.9773 10.5186 18.5355 10.5186H18.5326ZM14.8228 12.4277L14.8443 12.4277C15.4476 12.4276 16.0508 12.4274 16.6541 12.4274L18.1145 12.4276H18.1148H18.115H18.1153H18.1156H18.1159H18.1161H18.1164H18.1167H18.1169H18.1172H18.1175H18.1177H18.118H18.1183H18.1185H18.1188H18.1191H18.1193H18.1196H18.1199H18.1202H18.1204C20.0266 12.428 21.9313 12.4284 23.836 12.4226C23.8671 12.4226 23.8989 12.4232 23.9307 12.4239H23.9308H23.9308H23.9309H23.931H23.931C24.1991 12.4292 24.4754 12.4347 24.4779 12.0694C24.4802 11.7046 24.2094 11.7151 23.9557 11.725C23.9149 11.7266 23.8746 11.7282 23.836 11.7282C19.0222 11.7234 14.2112 11.721 9.3975 11.7379C9.1706 11.7403 8.7722 11.9121 8.7446 12.05C8.66555 12.439 9.00366 12.4323 9.29755 12.4264C9.33266 12.4257 9.36714 12.425 9.4002 12.425C11.2078 12.4287 13.0153 12.4282 14.8228 12.4277ZM15.0495 13.6395C15.587 13.6395 16.1242 13.639 16.6615 13.6384C18.4056 13.6367 20.149 13.6349 21.8939 13.6516C22.1291 13.654 22.5468 13.8113 22.5662 13.9371C22.63 14.3256 22.2641 14.3249 21.9407 14.3242L21.9022 14.3242C19.6322 14.3242 17.3623 14.3248 15.0924 14.3254C12.8225 14.326 10.5525 14.3266 8.2826 14.3266C8.25314 14.3266 8.22296 14.327 8.19244 14.3275C8.0338 14.3298 7.86605 14.3323 7.7431 14.2734C7.6131 14.2105 7.4969 14.0387 7.483 13.9056C7.4748 13.8282 7.6656 13.6927 7.7929 13.6589C7.91862 13.6246 8.05964 13.6293 8.19888 13.6339L8.19899 13.6339C8.24667 13.6355 8.29413 13.6371 8.3407 13.6371H15.0467L15.0495 13.6395ZM13.4726 8.60491H21.1469C21.6653 8.60491 22.1836 8.60519 22.7018 8.60548H22.702C24.7889 8.60662 26.8742 8.60777 28.9596 8.59031C29.1193 8.59031 29.2776 8.5022 29.4365 8.41384C29.5116 8.37206 29.5868 8.33022 29.6623 8.29761C29.6008 8.2648 29.5397 8.23111 29.4785 8.1974C29.3142 8.10679 29.1496 8.01606 28.9762 7.94201C28.9105 7.91327 28.8261 7.9199 28.7415 7.92655C28.7049 7.92943 28.6682 7.93231 28.6331 7.93231L13.4919 7.93951C13.4523 7.93951 13.4117 7.93869 13.3708 7.93787C13.2003 7.93445 13.0233 7.93091 12.8805 7.98551C12.7505 8.03391 12.6343 8.21051 12.6177 8.34111C12.6094 8.41371 12.8003 8.54921 12.9248 8.58311C13.0514 8.61574 13.192 8.61168 13.3327 8.60761C13.3795 8.60626 13.4263 8.60491 13.4726 8.60491ZM11.7103 19.9758C11.2905 19.9758 10.8707 19.9763 10.4509 19.9768C8.98402 19.9784 7.51751 19.9801 6.05271 19.9613C5.82581 19.9589 5.43301 19.7871 5.41091 19.6565C5.34939 19.2736 5.6814 19.2808 5.97359 19.2871H5.9736H5.97362C6.01012 19.2879 6.04599 19.2887 6.08041 19.2887H6.08241C9.85524 19.2863 13.6254 19.2839 17.3982 19.2912C17.6113 19.2912 17.8464 19.3444 18.0262 19.4412C18.1037 19.4823 18.1231 19.7653 18.0539 19.8137C17.9128 19.9129 17.6943 19.9686 17.5061 19.971C16.2322 19.9783 14.9568 19.9773 13.6821 19.9764H13.6818H13.6815H13.6813H13.681H13.6808H13.6805H13.6802H13.68H13.6797H13.6794H13.6792H13.6789C13.2522 19.9761 12.8256 19.9758 12.3991 19.9758H11.7103ZM10.0976 23.8011H10.0979H10.0981H10.0984H10.0987H10.0989H10.0992H10.0994H10.0997H10.0999H10.1002H10.1004H10.1007H10.1009H10.1012H10.1014H10.1017C10.5495 23.8009 10.9972 23.8008 11.4447 23.8008C13.0576 23.8008 14.6677 23.8008 16.2806 23.7984C16.3739 23.7984 16.468 23.8018 16.5619 23.8052C16.7936 23.8136 17.0248 23.822 17.2433 23.779C17.3586 23.7555 17.4538 23.6492 17.5485 23.5434C17.5902 23.4969 17.6318 23.4505 17.6749 23.4113C17.633 23.3805 17.5921 23.3477 17.5511 23.3148L17.551 23.3148L17.551 23.3148C17.4566 23.2391 17.3615 23.1628 17.2516 23.1089C17.1899 23.0802 17.1053 23.0868 17.0204 23.0934C16.9835 23.0963 16.9465 23.0992 16.9114 23.0992C13.2485 23.0968 9.5883 23.0968 5.9255 23.0968C5.88921 23.0968 5.85198 23.0951 5.81464 23.0935H5.81461H5.81457H5.81454H5.8145H5.81447C5.70949 23.0888 5.60375 23.084 5.516 23.1161C5.38871 23.1645 5.20341 23.2831 5.2089 23.3653C5.21451 23.4984 5.31961 23.6871 5.4468 23.7428C5.58945 23.8051 5.77412 23.8023 5.94996 23.7995L5.95032 23.7995C5.98589 23.7989 6.02109 23.7984 6.05551 23.7984C7.40213 23.802 8.75026 23.8015 10.0976 23.8011ZM11.3202 21.1879H11.3244C13.0742 21.1879 14.8268 21.1879 16.5766 21.1903C16.6192 21.1903 16.664 21.1877 16.7091 21.1852C16.8338 21.1781 16.961 21.1708 17.0524 21.217C17.2046 21.292 17.3927 21.4565 17.39 21.5799C17.3872 21.6839 17.152 21.8121 16.9943 21.8799C16.9149 21.9138 16.8138 21.9062 16.7128 21.8985C16.6696 21.8953 16.6264 21.892 16.5849 21.892H6.0029C5.95878 21.892 5.91318 21.8944 5.86739 21.8968L5.86732 21.8968C5.74664 21.9031 5.62454 21.9094 5.5243 21.8726C5.3804 21.8194 5.1647 21.6621 5.184 21.5871C5.2172 21.4468 5.3749 21.2532 5.5188 21.2218C5.73066 21.1746 5.95965 21.1805 6.18708 21.1864H6.1871H6.18718H6.18726H6.18734H6.18742H6.1875H6.18758H6.18766H6.18774H6.18782H6.1879H6.18798H6.18806H6.18814H6.18822H6.1883H6.18838H6.18846C6.2635 21.1883 6.33837 21.1903 6.4124 21.1903C8.0474 21.1855 9.6852 21.1855 11.3202 21.1879ZM7.5245 16.1968H13.669C14.7284 16.1956 15.7871 16.1956 16.8458 16.1956H16.8508C17.9082 16.1956 18.9656 16.1956 20.0237 16.1944C20.0711 16.1944 20.1193 16.1958 20.1677 16.1972C20.3314 16.2019 20.497 16.2066 20.6379 16.1581C20.7707 16.1121 20.9035 15.95 20.9284 15.8242C20.945 15.7516 20.7569 15.6089 20.6324 15.5678C20.5281 15.532 20.4041 15.5372 20.2816 15.5424H20.2816H20.2815H20.2815H20.2815H20.2814H20.2814H20.2813H20.2813H20.2812H20.2812H20.2811H20.2811H20.281H20.281H20.281C20.238 15.5442 20.1953 15.546 20.1537 15.546H7.3087C7.26726 15.546 7.22383 15.5427 7.18036 15.5395C7.07874 15.5318 6.97683 15.5242 6.8993 15.5581C6.79062 15.6056 6.69961 15.6853 6.60911 15.7645C6.57062 15.7982 6.53223 15.8319 6.4926 15.8629C6.53293 15.8953 6.57179 15.9317 6.6107 15.9682C6.70261 16.0545 6.79484 16.141 6.9076 16.175C7.04159 16.217 7.19574 16.2097 7.34926 16.2024C7.40816 16.1996 7.46696 16.1968 7.5245 16.1968ZM12.6647 18.0718H6.7278C6.67864 18.0718 6.62807 18.0741 6.57723 18.0764C6.43924 18.0826 6.29926 18.0889 6.18 18.05C6.0389 18.004 5.8452 17.8516 5.8535 17.7549C5.8618 17.6436 6.0417 17.4984 6.1827 17.4476C6.30419 17.4055 6.44947 17.4105 6.5921 17.4154C6.6379 17.417 6.68342 17.4186 6.7278 17.4186C10.6867 17.4186 14.6456 17.4186 18.6045 17.421C18.6397 17.421 18.6767 17.4181 18.7135 17.4152C18.7985 17.4086 18.883 17.402 18.9448 17.4307C19.0792 17.4937 19.2026 17.5759 19.3256 17.6578C19.3774 17.6923 19.4291 17.7267 19.4815 17.7597C19.4257 17.7932 19.37 17.8358 19.314 17.8786C19.1924 17.9716 19.0699 18.0653 18.9448 18.0669C17.6856 18.0832 16.4264 18.0792 15.1659 18.0751L15.1635 18.0751L15.161 18.0751L15.1586 18.0751L15.1561 18.0751L15.1537 18.0751L15.1512 18.0751L15.1488 18.0751L15.1464 18.0751L15.144 18.0751L15.1416 18.0751L15.1392 18.0751L15.1368 18.075L15.1344 18.075L15.132 18.075L15.1296 18.075C14.7212 18.0737 14.3128 18.0724 13.9041 18.0718H12.6647ZM27.1731 4.18361C26.8261 4.18414 26.4792 4.18468 26.1322 4.18468C26.1322 4.18226 26.1322 4.17984 26.1295 4.17984C25.7609 4.17984 25.3923 4.17908 25.0238 4.17833C23.9178 4.17606 22.8117 4.1738 21.7058 4.19194C21.5746 4.19522 21.4447 4.27619 21.3143 4.35742C21.2523 4.39612 21.1901 4.43488 21.1276 4.46533C21.1874 4.50401 21.2473 4.55268 21.3071 4.60134L21.3071 4.60135C21.4381 4.70792 21.5691 4.81448 21.7002 4.81613C24.6521 4.84033 27.6012 4.84275 30.5504 4.82097C30.6818 4.81933 30.8133 4.71398 30.9448 4.60864L30.9448 4.6086C31.007 4.5588 31.0691 4.509 31.1313 4.47017C31.0724 4.44031 31.0135 4.40308 30.9545 4.36579C30.8224 4.28225 30.6898 4.19845 30.5559 4.19678C29.4283 4.18013 28.3007 4.18187 27.1731 4.18361ZM8.7391 25.0105C8.97792 25.0105 9.21674 25.0094 9.45553 25.0082C10.1378 25.005 10.8197 25.0017 11.5001 25.025C11.627 25.03 11.75 25.12 11.8735 25.2104C11.9305 25.2521 11.9875 25.2938 12.0451 25.3274C11.9893 25.3647 11.9339 25.4117 11.8785 25.4585L11.8785 25.4586L11.8785 25.4586L11.8784 25.4586L11.8784 25.4586L11.8784 25.4586L11.8784 25.4586L11.8784 25.4586L11.8784 25.4586L11.8783 25.4586L11.8783 25.4587L11.8783 25.4587L11.8783 25.4587L11.8783 25.4587C11.7578 25.5606 11.6379 25.6621 11.5167 25.6637C9.6769 25.6879 7.8344 25.6855 5.9919 25.6613C5.86344 25.6597 5.73624 25.5621 5.60859 25.4642C5.54931 25.4187 5.48994 25.3731 5.4303 25.3371C5.48802 25.3027 5.54519 25.2595 5.60224 25.2165C5.72565 25.1234 5.84851 25.0307 5.9753 25.0274C6.66621 25.002 7.35707 25.0052 8.04796 25.0084H8.04811C8.27843 25.0094 8.50876 25.0105 8.7391 25.0105ZM43.5078 19.9786C43.7101 19.9772 43.9124 19.9758 44.1147 19.9758V19.9444C44.3094 19.9444 44.5038 19.9455 44.6982 19.9466C45.2163 19.9494 45.7333 19.9523 46.2504 19.9347C46.3913 19.9297 46.5309 19.8724 46.671 19.8149C46.7372 19.7877 46.8035 19.7605 46.8701 19.7387C46.8101 19.6986 46.751 19.6481 46.6919 19.5978L46.6919 19.5977L46.6919 19.5977C46.5658 19.4902 46.4404 19.3832 46.3085 19.3782C44.8174 19.3226 43.3262 19.2984 41.835 19.3008C41.7153 19.3025 41.5969 19.4079 41.479 19.5131L41.4789 19.5131C41.4251 19.561 41.3714 19.6089 41.3177 19.6468C41.3734 19.6816 41.4285 19.7255 41.4836 19.7694C41.6009 19.8629 41.7182 19.9563 41.8406 19.9613C42.3963 19.9862 42.952 19.9824 43.5078 19.9786ZM43.6204 21.8923H43.6203C43.0659 21.8961 42.5112 21.8998 41.9595 21.875C41.8281 21.8683 41.7019 21.7803 41.5755 21.6921C41.5184 21.6522 41.4612 21.6122 41.4034 21.5798C41.4631 21.5385 41.5223 21.4856 41.5814 21.4328C41.7056 21.3219 41.8292 21.2113 41.9568 21.2097C43.0994 21.1886 44.242 21.1964 45.3846 21.2041C45.6834 21.2062 45.9821 21.2082 46.2809 21.2097L46.2956 21.2097C46.406 21.2096 46.5361 21.2095 46.6156 21.2581C46.7228 21.3257 46.8128 21.4133 46.9032 21.5012L46.9033 21.5013C46.9389 21.5359 46.9745 21.5705 47.0112 21.604C46.9638 21.6332 46.9168 21.6698 46.8696 21.7066C46.768 21.7858 46.6661 21.8652 46.5603 21.8702C45.9856 21.8899 45.4094 21.8871 44.8339 21.8843H44.8337H44.8334H44.8332H44.8329H44.8326H44.8323H44.8321H44.8318H44.8315H44.8312C44.6291 21.8833 44.4271 21.8823 44.2253 21.8823V21.8895C44.0241 21.8895 43.8228 21.8909 43.6213 21.8923H43.6212H43.6211H43.621H43.6209H43.6208H43.6207H43.6205H43.6204ZM44.1468 23.7549C44.314 23.7536 44.4813 23.7524 44.6486 23.7524V23.796C44.8242 23.796 45.0002 23.7975 45.1764 23.799L45.1768 23.7991H45.1768H45.1768H45.1769H45.1769H45.1769H45.177H45.177H45.1771H45.1771H45.1771C45.6667 23.8033 46.1572 23.8076 46.6433 23.7791C46.7512 23.7725 46.8527 23.6707 46.9547 23.5683L46.9547 23.5683C47.0018 23.5211 47.049 23.4737 47.097 23.4355C47.0484 23.3999 47 23.3547 46.9517 23.3095L46.9517 23.3095C46.849 23.2134 46.7468 23.1178 46.6433 23.1162C45.3596 23.0968 44.076 23.1065 42.7923 23.1404C42.6871 23.1437 42.587 23.244 42.4868 23.3444L42.4868 23.3444C42.4394 23.3919 42.392 23.4393 42.3441 23.4766C42.3914 23.5057 42.4381 23.5421 42.4849 23.5785C42.5857 23.657 42.6864 23.7354 42.7923 23.7404C43.2427 23.7616 43.6945 23.7582 44.1468 23.7549ZM17.1767 25.0097H17.1768C17.5438 25.0054 17.911 25.0011 18.2752 25.0274C18.3747 25.034 18.4665 25.1185 18.5585 25.2031L18.5585 25.2031C18.6021 25.2433 18.6457 25.2834 18.6902 25.3153C18.6498 25.3522 18.6096 25.3992 18.5695 25.4461C18.4833 25.5469 18.3972 25.6476 18.3084 25.6492C17.2793 25.6782 16.2474 25.6807 15.221 25.6492C15.123 25.6459 15.0276 25.5316 14.9331 25.4184C14.8916 25.3686 14.8502 25.319 14.8088 25.2791C14.8555 25.2511 14.9017 25.2165 14.9478 25.1818C15.0495 25.1056 15.1513 25.0293 15.2597 25.0226C15.613 25.0003 15.9691 25.0048 16.326 25.0092H16.3261H16.3261H16.3261H16.3261H16.3261H16.3262H16.3262H16.3262H16.3262C16.4723 25.0111 16.6185 25.0129 16.7647 25.0129C16.9016 25.0129 17.0387 25.0113 17.1759 25.0097H17.176H17.1761H17.1762H17.1763H17.1764H17.1765H17.1766H17.1767ZM45.3032 25.0119C45.1614 25.0136 45.0197 25.0153 44.8782 25.0153C44.7385 25.0153 44.5986 25.0135 44.4588 25.0116H44.4587C44.1165 25.0072 43.7746 25.0027 43.4369 25.025C43.3285 25.0333 43.2253 25.1103 43.1228 25.1866C43.0763 25.2213 43.0299 25.2559 42.9832 25.2839C43.0274 25.3256 43.0707 25.3779 43.1138 25.43C43.2057 25.5409 43.2966 25.6507 43.3926 25.654C44.3996 25.6855 45.4066 25.6831 46.4137 25.6492C46.5143 25.6459 46.611 25.5366 46.7073 25.4277C46.7514 25.3779 46.7954 25.3282 46.8397 25.2887C46.7934 25.2602 46.7477 25.2253 46.7019 25.1903C46.5999 25.1123 46.4977 25.0341 46.3888 25.0274C46.0287 25.0031 45.6658 25.0075 45.3032 25.0119ZM44.4664 27.5561H44.4664C44.2047 27.5625 43.9425 27.569 43.6886 27.5363C43.587 27.5229 43.5 27.4305 43.4129 27.338L43.4129 27.338C43.3743 27.297 43.3357 27.256 43.2958 27.2218C43.3398 27.1903 43.3834 27.1504 43.4272 27.1105L43.4273 27.1105C43.5212 27.0248 43.6154 26.9389 43.7135 26.9339C44.4439 26.9 45.1798 26.8952 45.9102 26.9218C46.0078 26.9251 46.1015 27.0096 46.1958 27.0947C46.2405 27.135 46.2853 27.1754 46.3307 27.2073C46.283 27.2436 46.2369 27.2879 46.191 27.332C46.0931 27.4261 45.9955 27.5198 45.8825 27.5363C45.6211 27.575 45.3524 27.5664 45.0849 27.5579C44.9844 27.5547 44.884 27.5515 44.7842 27.5508C44.6789 27.5508 44.5728 27.5534 44.4667 27.5561H44.4667H44.4666H44.4666H44.4665H44.4665H44.4664ZM7.05181 27.5502C7.15605 27.5481 7.26029 27.546 7.36409 27.546V27.5532C7.47324 27.5532 7.58239 27.5551 7.69142 27.5569L7.69175 27.5569C7.97502 27.5618 8.25751 27.5666 8.53709 27.5387C8.62919 27.5286 8.71331 27.4441 8.79681 27.3601C8.83371 27.323 8.87049 27.2861 8.90779 27.2557C8.87141 27.2231 8.83556 27.1824 8.79974 27.1418C8.72119 27.0527 8.64278 26.9638 8.55919 26.9605C7.80119 26.9266 7.04039 26.9194 6.28239 26.9387C6.16339 26.9411 5.95869 27.1226 5.95869 27.2218C5.96139 27.3307 6.14129 27.5169 6.26299 27.5315C6.52116 27.561 6.78649 27.5556 7.05181 27.5502ZM44.9612 18.0694C44.8624 18.0694 44.7631 18.0718 44.6639 18.0741C44.4158 18.08 44.1677 18.086 43.9266 18.0549C43.8213 18.0417 43.7275 17.9604 43.633 17.8785C43.5885 17.8399 43.5438 17.8012 43.4977 17.7694C43.5383 17.7339 43.5784 17.6894 43.6186 17.6448C43.7069 17.5468 43.7955 17.4485 43.8906 17.4452C44.6016 17.4113 45.3181 17.4113 46.0291 17.4428C46.1243 17.4477 46.2141 17.5466 46.3042 17.6456C46.3451 17.6905 46.386 17.7355 46.4275 17.7718C46.3825 17.8028 46.3386 17.8403 46.2946 17.8777C46.1981 17.96 46.1015 18.0423 45.9932 18.0573C45.7554 18.0879 45.5123 18.0814 45.2684 18.0749H45.2684H45.2683H45.2682H45.2682H45.2681C45.1658 18.0721 45.0634 18.0694 44.9612 18.0694ZM44.2324 29.442H44.2324C44.3023 29.4388 44.3722 29.4355 44.4411 29.4355C44.5058 29.4362 44.5715 29.4394 44.6372 29.4426H44.6373H44.6373C44.8047 29.4507 44.9731 29.4588 45.13 29.4258C45.2443 29.4025 45.3455 29.3298 45.4472 29.2568L45.4472 29.2567C45.4932 29.2237 45.5392 29.1907 45.5865 29.1621C45.5412 29.1225 45.4973 29.0739 45.4535 29.0253C45.3581 28.9194 45.263 28.814 45.1549 28.804C44.679 28.7605 44.1894 28.7677 43.7135 28.8113C43.6165 28.8196 43.5301 28.917 43.4432 29.0148C43.4037 29.0594 43.3641 29.104 43.3234 29.1403C43.3691 29.1711 43.4134 29.2072 43.4578 29.2433C43.553 29.3209 43.6483 29.3986 43.7578 29.4234C43.9069 29.4573 44.0695 29.4497 44.2324 29.442ZM43.5216 31.3271L43.5215 31.327C43.2984 31.2178 43.104 31.1226 43.0966 31.0178C43.0688 30.6495 43.3971 30.6569 43.6914 30.6635C43.749 30.6648 43.8053 30.6661 43.8574 30.6645L43.9235 30.6623C44.2456 30.6509 44.6345 30.6372 44.5906 31.0444C44.5796 31.1458 44.3969 31.2333 44.1839 31.3354C44.0768 31.3868 43.962 31.4418 43.8574 31.5041C43.7516 31.4397 43.6332 31.3817 43.522 31.3273L43.5218 31.3272L43.5216 31.3271ZM44.8667 16.0337L44.8676 16.0343C44.9819 16.1246 45.1135 16.2286 45.296 16.371C45.509 16.1266 45.639 15.9815 45.7718 15.8339C45.7126 15.8046 45.6529 15.7675 45.5932 15.7303C45.4604 15.6477 45.3279 15.5652 45.2019 15.5702C45.0779 15.5769 44.9592 15.6764 44.8412 15.7753C44.7909 15.8175 44.7406 15.8596 44.6901 15.8944L44.7475 15.9396L44.8667 16.0337ZM7.12059 29.5831C7.02799 29.4824 6.95182 29.4006 6.88453 29.3283L6.88451 29.3282C6.81113 29.2494 6.74832 29.1819 6.68629 29.1137C6.73468 29.0803 6.78463 29.0375 6.83463 28.9948L6.83467 28.9947C6.9476 28.8981 7.06074 28.8013 7.15659 28.8113C7.27992 28.8265 7.38985 28.9297 7.49948 29.0327C7.54718 29.0775 7.59483 29.1223 7.64349 29.1597L7.59661 29.1976L7.5929 29.2006C7.46264 29.3059 7.32628 29.4161 7.12059 29.5831ZM43.2188 33.0607C43.2887 33.0011 43.3702 32.9315 43.4673 32.8613C43.3609 32.8136 43.27 32.7656 43.1902 32.7235C43.0313 32.6396 42.9166 32.5791 42.8116 32.5903C42.7214 32.5987 42.6459 32.7026 42.5702 32.8066C42.5368 32.8525 42.5033 32.8985 42.4686 32.9363C42.5167 32.9686 42.5635 33.0072 42.6102 33.0458C42.7138 33.1313 42.817 33.2165 42.9333 33.2315C43.0061 33.2423 43.0938 33.1675 43.2188 33.0607Z" fill="black"/>
</svg>
